<svg xmlns="http://www.w3.org/2000/svg" viewBox="0 0 1566.6 600.63"><defs><style>.cls-1{fill:#cff2fb;}.cls-14,.cls-19,.cls-2,.cls-26,.cls-28,.cls-3,.cls-31,.cls-34,.cls-35,.cls-5{fill:none;}.cls-2,.cls-3,.cls-5{stroke:#31c6ed;}.cls-2,.cls-34,.cls-35,.cls-5{stroke-linecap:round;}.cls-14,.cls-19,.cls-2,.cls-26,.cls-28,.cls-3,.cls-31,.cls-33,.cls-34,.cls-35,.cls-5{stroke-miterlimit:10;}.cls-14,.cls-19,.cls-2,.cls-35{stroke-width:2px;}.cls-4{fill:#31c6ed;}.cls-34,.cls-5{stroke-width:3px;}.cls-6{fill:#68c1c1;}.cls-7{fill:#87e4d7;}.cls-8{fill:#f48ac0;}.cls-9{fill:#fcb7e2;}.cls-10{fill:#f3e4ed;}.cls-11{fill:#81576d;}.cls-12{fill:#fff;}.cls-13{fill:#fbb4e0;}.cls-14{stroke:#97dddb;}.cls-15{fill:#67c1b2;}.cls-16{fill:#60c9be;}.cls-17{fill:#4fbeb3;}.cls-18,.cls-33{fill:#f9e4d7;}.cls-19,.cls-28,.cls-33,.cls-34,.cls-35{stroke:#8f7a9e;}.cls-20{fill:#8f7a9e;}.cls-21{fill:#ed98a0;}.cls-22{fill:#f4bac0;}.cls-23{fill:#7d475b;}.cls-24{fill:#fbdbdf;}.cls-25{fill:#f0a7ae;}.cls-26{stroke:#d99dba;}.cls-27{fill:#b5a0c3;}.cls-29{fill:#f1c1b4;}.cls-30{fill:#766387;}.cls-31{stroke:#000;}.cls-32{fill:#fdf5ef;}.cls-33{stroke-width:0.75px;}</style></defs><title>404</title><g id="Calque_2" data-name="Calque 2"><g id="Calque_1-2" data-name="Calque 1"><path class="cls-1" d="M191.63,544.79s-5.6,35,47.62,35.48l85.44,3.27,35-10.74h38.75l137.73.47,31.74-1.87s36.89-9.8,36-21L602,548.06l-29.88-.94-30.35-10.73-50,2.8-129.32,6.07-45.29,1.4Z"/><path class="cls-1" d="M794.75,549.86s-8,10,50.56,25c0,0,63.59,26.54,126.68,11.52l62.58-9.51,5.51-6.46,2.5-5.06,41.06-8,19,3.5,16.52,12,31,3.51s94.62-19,123.66-37.55l-52.07-4-222.8,3-99.63-1-23,1.5-22.2,12.6-35.38-.58Z"/><circle class="cls-2" cx="564.79" cy="92.95" r="23"/><circle class="cls-3" cx="1415.43" cy="220.33" r="18.5"/><circle class="cls-2" cx="96.65" cy="200.16" r="16"/><circle class="cls-4" cx="119.65" cy="255.33" r="11"/><circle class="cls-4" cx="1450.43" cy="182.59" r="11"/><circle class="cls-4" cx="1445.93" cy="271.26" r="7.5"/><circle class="cls-4" cx="136.74" cy="180.59" r="5"/><circle class="cls-4" cx="1333.02" cy="237.33" r="5"/><circle class="cls-4" cx="58.31" cy="244.33" r="5"/><circle class="cls-4" cx="564.79" cy="151.11" r="11.5"/><circle class="cls-4" cx="525.83" cy="115.95" r="5.5"/><circle class="cls-4" cx="627.21" cy="113.95" r="2.5"/><circle class="cls-4" cx="601.15" cy="72.95" r="2.5"/><circle class="cls-4" cx="590.29" cy="122.95" r="2.5"/><circle class="cls-4" cx="554.79" cy="317.15" r="2.5"/><circle class="cls-4" cx="1235.84" cy="229.95" r="2.5"/><circle class="cls-4" cx="1337.52" cy="180.05" r="2.5"/><circle class="cls-4" cx="1268.85" cy="352.82" r="2.5"/><circle class="cls-4" cx="1499.8" cy="255.28" r="2.5"/><circle class="cls-4" cx="1460.43" cy="384.31" r="2.5"/><circle class="cls-4" cx="1502.3" cy="428.06" r="2.5"/><circle class="cls-4" cx="447.4" cy="185.09" r="2.5"/><circle class="cls-4" cx="335.21" cy="134.19" r="2.5"/><circle class="cls-4" cx="222.1" cy="301.66" r="2.5"/><circle class="cls-4" cx="141.24" cy="208.42" r="2.5"/><circle class="cls-4" cx="83.38" cy="262.76" r="2.5"/><circle class="cls-4" cx="122.15" cy="357.49" r="2.5"/><circle class="cls-4" cx="62.81" cy="404.05" r="2.5"/><path class="cls-5" d="M252.14,471.15l-34,5.9-37.79-13.87L132.89,466,87.13,500.27l-65.06,24a.19.19,0,0,1-.19-.31L96.14,450.7l20.8-61,60.32-5.55,24.61,39.17,50.27,47.84,35.36-4.5"/><polyline class="cls-5" points="1.5 524.54 146.41 526.27 177.95 543.61 364.81 545.34"/><polyline class="cls-2" points="186.37 398.64 174.14 434.06 144.67 446.89 120.69 475.11"/><polyline class="cls-2" points="106.08 421.54 113.82 442.38 119.02 448.62 106.08 465.61"/><polyline class="cls-2" points="100.16 490.5 110.35 507.56 133.23 522.81 133.23 526.12"/><path class="cls-2" d="M208.8,473.61l7.63,12.8,11.19,8.07a.52.52,0,0,1-.31.94H210.19l-25.3-4.92-39.8-25.26"/><polyline class="cls-2" points="132.89 465.95 156.11 495.07 160.62 500.62 180.73 515.18 194.94 521.77 221.29 519"/><path class="cls-5" d="M57.31,572.73l57.93-1.63a46,46,0,0,1,10.54.87c6.2,1.28,12.8,4,1.21,9.25l-26.83,4s-21,3.12-12.34,6.24"/><path class="cls-5" d="M399.82,571H357.88l-36.4,10.4L233.42,579s-36.4.35-15.95,9.36l12.83,3.12h45.76"/><polyline class="cls-5" points="449.83 398.64 505.04 371.11 548.65 384.14 559.14 415.28 579.01 441.23 623.73 480.33 681.7 480.33"/><polyline class="cls-5" points="564.86 422.75 601.65 373.32 636.98 381.6 661.27 419.14 684.46 441.23"/><polyline class="cls-2" points="653.44 445.74 640.3 423.76 636.98 381.6"/><polyline class="cls-2" points="627.42 445.74 615.3 415.68 585.31 395.27"/><polyline class="cls-2" points="548.65 384.14 490.01 416.94 478.65 445.74 463.49 456.12"/><polyline class="cls-2" points="542.55 428.56 524.37 428.56 513 443.21 478.65 445.74"/><polyline class="cls-2" points="659.75 500.55 609.49 500.55 570.84 462.66 570.84 430.56"/><path class="cls-5" d="M631.52,571l41.22-7.78,27.71,3.89,43.24-9.3h16.22s8.11-1,0,6.59c-.45,2.31-23.07,3.24-21.62,13.69H816"/><polyline class="cls-5" points="493.42 537.91 542.55 534.94 573 545.34 615.3 547.23"/><path class="cls-5" d="M506.07,571h73.28l-6.16,5.51a18.55,18.55,0,0,1-12.34,4.71h0a4.67,4.67,0,0,0-1.11.13c-4.6,1-35.65,8.32-11.09,10.1"/><path class="cls-5" d="M1205.39,599.13l48.19-7.3c1-.15,2-.34,3-.55l24.88-5.57,24.6,4.68a47.48,47.48,0,0,1,7.32,2l18.5,6.73"/><polyline class="cls-5" points="789.26 549.13 851.38 551 884.05 534.94 927.96 541.63"/><path class="cls-5" d="M971.86,585.71l58.62-7.62s7.92-.62,9.5-10.16l40.4-10.16,19,3,19,12.67,31.68,4.66"/><polyline class="cls-5" points="1276.89 400.42 1323.64 388.37 1365.57 366.2 1396.9 366.2 1424.37 408.61 1459.55 453.4 1476.9 488.13 1511.12 495.85 1536.72 516.44"/><polyline class="cls-5" points="1220.51 542.97 1276.41 538.26 1311.11 525.25 1348.22 518.5 1367.88 530.73 1463.89 530.73 1485.58 518.5 1506.78 521.39 1565.1 511.75"/><polyline class="cls-2" points="1476.9 488.13 1433.53 505.97 1391.27 517.6"/><polyline class="cls-2" points="1421.76 404.59 1402.9 444.1 1376.83 454.72 1356.87 468.56 1337.24 408.37 1334.76 382.49"/><path class="cls-5" d="M1522.62,560,1497,566.91a59.89,59.89,0,0,1-10.64,1.88l-31,2.63a40.45,40.45,0,0,0-10.48,2.26c-5.65,2.07-10.39,5.38,6.67,7.85l33.8,2.57,49.24,1.61"/><path class="cls-6" d="M981.69,121.21h0a402.25,402.25,0,0,0-44.14-8.82,388.39,388.39,0,0,0-50.3-3.88H887v0S917.75,74.82,940.49,65a20.9,20.9,0,0,1,23.89,5.25C971.06,77.85,979,92.66,981.69,121.21Z"/><path class="cls-6" d="M1094.66,168.25l0,0q-16.12-9.43-31.88-17-16.24-7.91-32-14.05l-.06,0c12.07-8.27,40.66-26.76,50.3-23.32C1081,113.78,1093.37,116.06,1094.66,168.25Z"/><path class="cls-6" d="M1184.74,254c-.24-.38-.48-.77-.73-1.15a267.79,267.79,0,0,0-43.78-52.3c.73-.48,32.77-21.6,42.5-10.79C1182.73,189.79,1199.29,199.12,1184.74,254Z"/><path class="cls-6" d="M1233.62,366l-.08-.17c-8.23-17.33-13.29-31.63-13.29-31.63-.61-2.17-1.23-4.32-1.88-6.44q-1.83-6.06-3.85-11.85c-2-5.86-4.18-11.5-6.44-16.94.68-.08,29.89-3.54,33.13,5.64C1241.21,304.57,1250.34,318.85,1233.62,366Z"/><path class="cls-6" d="M1283.57,425.88c-.49,0-.73,0-.73,0-6.19-1.34-12.28-5.47-18.09-11.28a111.17,111.17,0,0,1-13.22-16.49c6.43-5.79,19.28-16.07,24.11-10.43C1275.64,387.64,1282,396.63,1283.57,425.88Z"/><path class="cls-7" d="M1178.41,506.77c-2.1-.77-5.05,2-6.59,6.1s-1.07,8.14,1,8.92,5.05-1.95,6.58-6.1S1180.51,507.55,1178.41,506.77Zm-5-26.2c-2.24,0-4.06,3.59-4.06,8s1.82,8,4.06,8,4.06-3.58,4.06-8S1175.66,480.57,1173.42,480.57Zm-17.54-88.65a22.61,22.61,0,1,0,22.61,22.61A22.61,22.61,0,0,0,1155.88,391.92Zm4.21,104.88c-1.38-11.33-7.5-19.9-13.66-19.15s-10,10.54-8.65,21.87,7.49,19.9,13.66,19.15S1161.48,508.12,1160.09,496.8Zm-87.24-243.32a71.37,71.37,0,1,0,71.37,71.37A71.37,71.37,0,0,0,1072.85,253.48Zm-49.53,151.34a22.61,22.61,0,1,0,22.61,22.61A22.61,22.61,0,0,0,1023.32,404.82ZM989.21,506.56c-4.73-10.39-13.59-16.52-19.79-13.7s-7.4,13.53-2.68,23.91,13.59,16.52,19.79,13.7S993.93,517,989.21,506.56Zm-28,16.25c-5.76,0-10.43,4-10.43,8.89s4.67,8.89,10.43,8.89,10.44-4,10.44-8.89S967,522.81,961.24,522.81ZM913.07,328a27.62,27.62,0,1,0,27.62,27.62A27.62,27.62,0,0,0,913.07,328Zm-14.89-22.55c-.81-3.83-13.9-4.57-32.64-2.48a70.35,70.35,0,1,0-78.66,19.54c-7.09,3.27-11,6.3-10.56,8.59,1.19,5.69,29.44,4.56,63.09-2.52S899.37,311.17,898.18,305.48Zm-.64-121.55a3.61,3.61,0,0,0-2.06-2.44c-8.68-3.68-30.71,7.33-30.71,7.33-2.17,1,0,3.1,0,3.1l12.69,15.79c3.1,3.39,5.92,0,5.92,0C898.41,195.69,898.4,187.26,897.54,183.93Zm3.8,69.73c-2.64-.64-2.71,2.23-2.71,2.23l-.79,8.43c.64,6.05,4.29,4.94,4.29,4.94,13.22-.48,14.42-6.05,14.42-6.05C917.75,257,901.34,253.66,901.34,253.66Zm13.41-32.31c-6-3.28-22.49,1.11-22.49,1.11-3.06.72-1.43,3.34-1.43,3.34l5.25,11.3c2.71,5.73,7.49,2.07,7.49,2.07C913.66,234,916,228,916.49,225.08A3.55,3.55,0,0,0,914.75,221.35Zm99.69-29.69a32.2,32.2,0,1,0,32.2,32.2A32.21,32.21,0,0,0,1014.44,191.66Z"/><path class="cls-7" d="M1372.75,407.33c0-25.57-21.15-10.58-21.15-10.58-34.66,23.1-55.3,28-64,28.93a29.24,29.24,0,0,1-4.07.2c-.49,0-.73,0-.73,0-6.19-1.34-12.28-5.47-18.09-11.28a111.17,111.17,0,0,1-13.22-16.49A255.63,255.63,0,0,1,1233.62,366l-.08-.17c-8.23-17.33-13.29-31.63-13.29-31.63-.61-2.17-1.23-4.32-1.88-6.44q-1.83-6.06-3.85-11.85c-2-5.86-4.18-11.5-6.44-16.94h0a289.21,289.21,0,0,0-23.34-44.9c-.24-.38-.48-.77-.73-1.15a267.79,267.79,0,0,0-43.78-52.3v0h0c-15.49-14.21-26.64-20.69-26.64-20.69q-9.51-6.15-18.93-11.64l0,0q-16.12-9.43-31.88-17-16.24-7.91-32-14.05l-.06,0h0a421.1,421.1,0,0,0-49-15.89h0a402.25,402.25,0,0,0-44.14-8.82,388.39,388.39,0,0,0-50.3-3.88H887a360.31,360.31,0,0,0-60.16,4.26A195.1,195.1,0,0,1,848,154.86c9.07-1.19,16.7-.05,17,2.54s-6.74,5.65-15.81,6.84-16.7,0-17-2.54c-.28-2.13,4.44-4.57,11.16-6-5.52-15.25-13.82-29.39-22.89-41.83-20.47,3.67-32.05,7.87-32.05,7.87-124.18,37.91-115.6,212.45-115.6,212.45,87.94,6.14,155.85,30.72,182.12,41.55a42.89,42.89,0,0,1,24.44,25.53c4.77,14.05.18,25.21-5.66,32.89a38.8,38.8,0,0,1-21.86,14.12c-101.29,24.36-174.63,25.19-174.63,25.19-.55,10,8.3,24.48,14.95,33.87a27.55,27.55,0,0,0,17.74,11.2l4.34.77,107.54,3.53,21.16-.64L914,520l-14.86.44,21.37-17.18,8,16.3s7.7,15.46,5.62,19c0,0-27.26,7.55-28.46,13,0,0-1.87,6.52,24.51,5.84,0,0,72.12-1.34,86.06-10.76,0,0,2-5.46-7.41-29.54l-6.78-17.68,27,17.07,59.45-1.8,43.06-20.14,2.16,18.78s.67,9-1.59,9.41c0,0-24-1.9-27.25,2.5,0,0-2.64,10,62.87,23.3,0,0,31.36,6,32.09,2.49,0,0,1.31-.61,1.78-16.61,0-.17,0-.35,0-.53.15-5.55.2-12.9.07-22.61L1200,500.1l42.07,8.12h0c47.43-5.19,71.58-13.62,71.58-13.62C1382.45,469.91,1372.75,407.33,1372.75,407.33ZM1014.44,191.66a32.2,32.2,0,1,1-32.21,32.2A32.2,32.2,0,0,1,1014.44,191.66Zm-99.69,29.69a3.55,3.55,0,0,1,1.74,3.73c-.51,2.95-2.83,8.93-12.92,14.09,0,0-4.78,3.66-7.49-2.07l-5.25-11.3s-1.63-2.62,1.43-3.34C892.26,222.46,908.72,218.07,914.75,221.35Zm1.8,41.86s-1.2,5.57-14.42,6.05c0,0-3.65,1.11-4.29-4.94l.79-8.43s.07-2.87,2.71-2.23C901.34,253.66,917.75,257,916.55,263.21Zm-51.78-74.39s22-11,30.71-7.33a3.61,3.61,0,0,1,2.06,2.44c.86,3.33.87,11.76-14.16,23.78,0,0-2.82,3.39-5.92,0l-12.69-15.79S862.6,189.85,864.77,188.82ZM839.41,328.61c-33.65,7.08-61.9,8.21-63.09,2.52-.48-2.29,3.47-5.32,10.56-8.59A70.38,70.38,0,1,1,865.54,303c18.74-2.09,31.83-1.35,32.64,2.48C899.37,311.17,873.06,321.53,839.41,328.61Zm73.66,54.66a27.62,27.62,0,1,1,27.62-27.62A27.62,27.62,0,0,1,913.07,383.27Zm48.17,157.32c-5.76,0-10.43-4-10.43-8.89s4.67-8.89,10.43-8.89,10.44,4,10.44,8.89S967,540.59,961.24,540.59Zm25.29-10.12c-6.2,2.82-15.06-3.31-19.79-13.7s-3.52-21.09,2.68-23.91,15.06,3.31,19.79,13.7S992.73,527.65,986.53,530.47ZM1023.32,450a22.61,22.61,0,1,1,22.61-22.61A22.62,22.62,0,0,1,1023.32,450Zm49.53-53.82a71.37,71.37,0,1,1,71.37-71.37A71.37,71.37,0,0,1,1072.85,396.22Zm78.59,122.45c-6.17.75-12.28-7.82-13.66-19.15s2.49-21.12,8.65-21.87,12.28,7.82,13.66,19.15S1157.6,517.91,1151.44,518.67Zm4.44-81.53a22.61,22.61,0,1,1,22.61-22.61A22.61,22.61,0,0,1,1155.88,437.14Zm17.54,43.43c2.24,0,4.06,3.59,4.06,8s-1.82,8-4.06,8-4.06-3.58-4.06-8S1171.18,480.57,1173.42,480.57Zm6,35.12c-1.53,4.15-4.48,6.88-6.58,6.1s-2.57-4.77-1-8.92,4.49-6.87,6.59-6.1S1181,511.54,1179.44,515.69Z"/><path class="cls-7" d="M864.77,188.82s22-11,30.71-7.33a3.61,3.61,0,0,1,2.06,2.44c.86,3.33.87,11.76-14.16,23.78,0,0-2.82,3.39-5.92,0l-12.69-15.79S862.6,189.85,864.77,188.82Z"/><path class="cls-7" d="M839.41,328.61c-33.65,7.08-61.9,8.21-63.09,2.52-.48-2.29,3.47-5.32,10.56-8.59A70.38,70.38,0,1,1,865.54,303c18.74-2.09,31.83-1.35,32.64,2.48C899.37,311.17,873.06,321.53,839.41,328.61Z"/><path class="cls-7" d="M892.26,222.46s16.46-4.39,22.49-1.11a3.55,3.55,0,0,1,1.74,3.73c-.51,2.95-2.83,8.93-12.92,14.09,0,0-4.78,3.66-7.49-2.07l-5.25-11.3S889.2,223.18,892.26,222.46Z"/><path class="cls-7" d="M916.55,263.21s-1.2,5.57-14.42,6.05c0,0-3.65,1.11-4.29-4.94l.79-8.43s.07-2.87,2.71-2.23C901.34,253.66,917.75,257,916.55,263.21Z"/><polygon class="cls-7" points="920.51 503.29 928.54 519.59 914 520.03 899.14 520.47 920.51 503.29"/><circle class="cls-7" cx="913.07" cy="355.65" r="27.62"/><path class="cls-7" d="M971.68,531.7c0,4.91-4.67,8.89-10.44,8.89s-10.43-4-10.43-8.89,4.67-8.89,10.43-8.89S971.68,526.79,971.68,531.7Z"/><path class="cls-7" d="M989.21,506.56c4.72,10.39,3.52,21.09-2.68,23.91s-15.06-3.31-19.79-13.7-3.52-21.09,2.68-23.91S984.48,496.17,989.21,506.56Z"/><path class="cls-7" d="M982.23,223.86a32.21,32.21,0,1,1,32.21,32.2A32.21,32.21,0,0,1,982.23,223.86Z"/><circle class="cls-7" cx="1023.32" cy="427.43" r="22.61" transform="translate(372.21 1325.17) rotate(-76.72)"/><path class="cls-7" d="M1144.22,324.85a71.38,71.38,0,1,1-71.37-71.37A71.37,71.37,0,0,1,1144.22,324.85Z"/><path class="cls-7" d="M1160.09,496.8c1.39,11.32-2.49,21.11-8.65,21.87s-12.28-7.82-13.66-19.15,2.49-21.12,8.65-21.87S1158.71,485.47,1160.09,496.8Z"/><circle class="cls-7" cx="1155.88" cy="414.53" r="22.61" transform="translate(45.43 938.74) rotate(-45)"/><path class="cls-7" d="M1169.36,488.58c0-4.42,1.82-8,4.06-8s4.06,3.59,4.06,8-1.82,8-4.06,8S1169.36,493,1169.36,488.58Z"/><path class="cls-7" d="M1179.44,515.69c-1.53,4.15-4.48,6.88-6.58,6.1s-2.57-4.77-1-8.92,4.49-6.87,6.59-6.1S1181,511.54,1179.44,515.69Z"/><path class="cls-8" d="M776.08,39.74a39.57,39.57,0,0,1-4.16,17.71,38.41,38.41,0,0,1-2.41,4.18,39.74,39.74,0,1,1,6.57-21.89Z"/><circle class="cls-9" cx="723.73" cy="39.74" r="21.89"/><path class="cls-6" d="M865.05,157.4c.33,2.59-6.74,5.65-15.81,6.84s-16.7,0-17-2.54c-.28-2.13,4.44-4.57,11.16-6-5.52-15.25-13.82-29.39-22.89-41.83a268.89,268.89,0,0,0-51-52.21,38.41,38.41,0,0,0,2.41-4.18c.64.39,30.29,18.1,55,55.32A195.1,195.1,0,0,1,848,154.86C857.08,153.67,864.71,154.81,865.05,157.4Z"/><path class="cls-10" d="M1144.22,324.85a71.38,71.38,0,1,1-71.37-71.37A71.37,71.37,0,0,1,1144.22,324.85Z"/><circle class="cls-8" cx="913.07" cy="355.65" r="27.62"/><path class="cls-10" d="M1046.64,223.86a32.21,32.21,0,1,1-32.2-32.2A32.2,32.2,0,0,1,1046.64,223.86Z"/><circle class="cls-10" cx="1023.32" cy="427.43" r="22.61" transform="translate(372.21 1325.17) rotate(-76.72)"/><circle class="cls-10" cx="1155.88" cy="414.53" r="22.61" transform="translate(45.43 938.74) rotate(-45)"/><path class="cls-11" d="M857.39,255.94a45,45,0,1,1-45-45A45,45,0,0,1,857.39,255.94Z"/><path class="cls-11" d="M857.39,255.94a45,45,0,1,1-45-45A45,45,0,0,1,857.39,255.94Z"/><circle class="cls-12" cx="824.84" cy="244.48" r="27.95"/><path class="cls-8" d="M662.37,367a21.4,21.4,0,0,1-2.09-5.43l1.4,3.66a19,19,0,0,0,1.82,3.6A19.15,19.15,0,0,1,662.37,367Z"/><path class="cls-8" d="M873.72,434.13a38.8,38.8,0,0,1-21.86,14.12c-101.29,24.36-174.63,25.19-174.63,25.19-16.05-1.55-14.81-13.44-11.05-23H697.5c39.67.81,130.47-23.73,130.47-23.73,26.45-9.7,0-27.33,0-27.33-.58-.66-2.52-1.53-5.56-2.56l-.78-.26c-3-1-6.86-2.09-11.48-3.3l-2.19-.58-2-.5-3.49-.88c-2.67-.66-5.5-1.34-8.46-2l-4.33-1-3.63-.84-3.06-.7c-3-.68-6.15-1.38-9.34-2.08l-2.6-.58c-14.47-3.17-30.12-6.45-45-9.48l-2.76-.57-2.8-.57-2.8-.57-2.69-.54-2.59-.52-2.81-.57-3.24-.65-9.93-2-1.41-.28-.58-.11-2.4-.48-1.88-.37-1.34-.27-1.93-.38-5.31-1-12.84-2.5-1.4-.27-6.84-1.32-.21,0h-.05c-3.57-15.26,12.55-27.38,12.55-27.38,87.94,6.14,155.85,30.72,182.12,41.55a42.89,42.89,0,0,1,24.44,25.53C884.15,415.29,879.56,426.45,873.72,434.13Z"/><path class="cls-8" d="M681.61,365.68l5.31,1Z"/><path class="cls-8" d="M660.27,361.54h0v0Z"/><path class="cls-13" d="M828,426.72s-90.8,24.54-130.47,23.73H666.18a67.17,67.17,0,0,1,6.52-12.27c.44-.94,10.14-3,24.14-5.55l16.78-2.92,1.63-.28c7.4-1.24,15.25-2.52,23.13-3.78l9.29-1.48,2.32-.37c7.68-1.2,15.18-2.37,22-3.42l.15,0c19.34-3,33.74-5.09,33.74-5.09,19.4-5.29,0-10.58,0-10.58-3.63-1.74-9.69-3.63-17.28-5.56h0l-.22-.05c-6.16-1.57-13.31-3.17-21-4.75l-.11,0q-5-1-10.24-2l-.3-.06c-7.36-1.42-15-2.81-22.47-4.12-5.28-.93-10.51-1.82-15.56-2.66l-1.4-.23c-8.77-1.45-17-2.75-23.85-3.82l-1.09-.17c-4.64-.71-8.65-1.32-11.83-1.79-.6-.09-1.19-.2-1.78-.33l-.92-.22-.38-.1-1.12-.34q-.69-.23-1.35-.48c-.43-.16-.86-.34-1.28-.53l-.06,0c-.43-.19-.85-.4-1.26-.61s-.84-.45-1.24-.69-.81-.5-1.2-.76-.78-.54-1.15-.82-.65-.5-1-.77a5.76,5.76,0,0,1-.53-.47c-.17-.14-.34-.3-.51-.46s-.21-.2-.32-.31-.51-.5-.74-.76l-.19-.2q-.3-.31-.57-.66a5.83,5.83,0,0,1-.46-.55c-.26-.32-.51-.64-.74-1l-.18-.25-.16-.26a19,19,0,0,1-1.82-3.6l-1.4-3.65v0h.05l.21,0,6.84,1.32,1.4.27,12.84,2.5,5.31,1,1.93.38,1.34.27,1.88.37,2.4.48.58.11,1.41.28,9.93,2,3.24.65,2.81.57,2.59.52,2.69.54,2.8.57,2.8.57,2.76.57c14.86,3,30.51,6.31,45,9.48l2.6.58c3.19.7,6.31,1.4,9.34,2.08l3.06.7,3.63.84,4.33,1c3,.7,5.79,1.38,8.46,2l3.49.88,2,.5,2.19.58c4.62,1.21,8.51,2.32,11.48,3.3l.78.26c3,1,5,1.9,5.56,2.56C828,399.39,854.42,417,828,426.72Z"/><path class="cls-13" d="M663.5,368.82c.1.17.22.34.34.51l-.12-.16A3.37,3.37,0,0,1,663.5,368.82Z"/><line class="cls-14" x1="951" y1="77.75" x2="937.54" y2="112.39"/><line class="cls-14" x1="1070.32" y1="134.21" x2="1062.7" y2="151.27"/><line class="cls-14" x1="1169.7" y1="208.29" x2="1161.71" y2="222.68"/><line class="cls-14" x1="1226.53" y1="316.57" x2="1218.37" y2="327.72"/><line class="cls-14" x1="1272.44" y1="401.38" x2="1264.67" y2="414.67"/><path class="cls-15" d="M914,520c-2,22.79-5.32,23-5.47,23-15.86,1.12-65.57-20.9-65.57-20.9Z"/><polygon class="cls-16" points="928.54 519.59 914 520.03 899.14 520.47 920.51 503.29 928.54 519.59"/><path class="cls-16" d="M1242.1,508.22c-12,1.31-25.43,2.42-40.36,3.13L1200,500.1Z"/><path class="cls-15" d="M1245.6,526.92s-7.62,5.42-33.26,6.89l-10.68.68c0-.17,0-.35,0-.53.15-5.55.2-12.9.07-22.61,14.93-.71,28.39-1.82,40.36-3.13h0S1247.36,523.55,1245.6,526.92Z"/><polygon class="cls-16" points="1133.76 513.4 1088.54 514.76 1131.6 494.62 1133.76 513.4"/><polygon class="cls-16" points="1029.09 516.56 1008.86 517.17 1002.08 499.49 1029.09 516.56"/><path class="cls-10" d="M986.53,530.47c-6.2,2.82-15.06-3.31-19.79-13.7s-3.52-21.09,2.68-23.91,15.06,3.31,19.79,13.7S992.73,527.65,986.53,530.47Z"/><path class="cls-10" d="M971.68,531.7c0,4.91-4.67,8.89-10.44,8.89s-10.43-4-10.43-8.89,4.67-8.89,10.43-8.89S971.68,526.79,971.68,531.7Z"/><path class="cls-10" d="M1151.44,518.67c-6.17.75-12.28-7.82-13.66-19.15s2.49-21.12,8.65-21.87,12.28,7.82,13.66,19.15S1157.6,517.91,1151.44,518.67Z"/><path class="cls-10" d="M1177.48,488.58c0,4.42-1.82,8-4.06,8s-4.06-3.58-4.06-8,1.82-8,4.06-8S1177.48,484.16,1177.48,488.58Z"/><path class="cls-12" d="M812.36,186.58a70.35,70.35,0,1,0,70.36,70.36A70.36,70.36,0,0,0,812.36,186.58Zm0,114.38a45,45,0,1,1,45-45A45,45,0,0,1,812.36,301Z"/><path class="cls-17" d="M839.41,328.61c-33.65,7.08-61.9,8.21-63.09,2.52-.48-2.29,3.47-5.32,10.56-8.59A70.41,70.41,0,0,0,865.54,303c18.74-2.09,31.83-1.35,32.64,2.48C899.37,311.17,873.06,321.53,839.41,328.61Z"/><path class="cls-10" d="M1179.44,515.69c-1.53,4.15-4.48,6.88-6.58,6.1s-2.57-4.77-1-8.92,4.49-6.87,6.59-6.1S1181,511.54,1179.44,515.69Z"/><path class="cls-6" d="M883.38,207.71s-2.82,3.39-5.92,0l-12.69-15.79s-2.17-2.07,0-3.1c0,0,22-11,30.71-7.33a3.61,3.61,0,0,1,2.06,2.44C898.4,187.26,898.41,195.69,883.38,207.71Z"/><path class="cls-6" d="M916.49,225.08c-.51,2.95-2.83,8.93-12.92,14.09,0,0-4.78,3.66-7.49-2.07l-5.25-11.3s-1.63-2.62,1.43-3.34c0,0,16.46-4.39,22.49-1.11A3.55,3.55,0,0,1,916.49,225.08Z"/><path class="cls-6" d="M916.55,263.21s-1.2,5.57-14.42,6.05c0,0-3.65,1.11-4.29-4.94l.79-8.43s.07-2.87,2.71-2.23C901.34,253.66,917.75,257,916.55,263.21Z"/><path class="cls-18" d="M788.65,399.11h0c-.15.22-4.76,7.55-9.07,10.87a4.36,4.36,0,0,1-5.87-.53c-2.12-2.3-5-6.83-6.37-15.17l.11,0,21,4.75Z"/><path class="cls-18" d="M757.1,392.25s-5.94,8.35-10.42,12a4.14,4.14,0,0,1-5.82-.51c-2-2.38-4.73-7-6.53-15.71l22.47,4.12Z"/><path class="cls-18" d="M718.77,385.41s-4.38,10.34-9.13,15a4.82,4.82,0,0,1-6.75,0c-2.54-2.51-6.38-7.87-10.46-19.25l1.09.17,23.85,3.82Z"/><path class="cls-18" d="M715.25,429.43l-1.63.28-16.78,2.92s6-9.55,9.12-13a1.86,1.86,0,0,1,2.76,0A67.9,67.9,0,0,1,715.25,429.43Z"/><path class="cls-18" d="M750,423.8l-2.32.37-9.29,1.48-1.23.19s3-7.72,5.09-10.19a1.36,1.36,0,0,1,1.89-.13C745.28,416.47,747.46,418.76,750,423.8Z"/><path class="cls-18" d="M779.3,419.07l-7.11,1.28-.15,0a29.44,29.44,0,0,1,2.86-4.61,1.32,1.32,0,0,1,2.07.1Z"/><path class="cls-19" d="M405.22,345.24a281.52,281.52,0,0,0,9.23-53.12c2.62-32.75-1.52-54.58-1.52-54.58-7.17-42.39-44.79-49-44.79-49-58.51-9-76.42,27.47-76.42,27.47-23.29,30.45,12,137.66,12,137.66"/><path class="cls-20" d="M407,359.94s-39.41-.59-43.59,6.57l-9.83.7-40.92,2.89a9.45,9.45,0,0,1-5-.86c-7-3.54-4.54-16.46-4.54-16.46s7.52-1.07,18.58-2.47c19.38-2.44,49.63-5.87,69.34-6.22,8.37-.16,14.84.25,17.77,1.52C408.75,345.61,414.12,358.15,407,359.94Z"/><path class="cls-11" d="M396.21,296.06a48.45,48.45,0,0,1,11.38,3.28,6.62,6.62,0,0,1,1.31,11.25c-2.73,2.09-7,4-13.29,3.38l-2.39,9s-.85.19-2.24.46c-5.19,1-17.87,3.33-21.64,1.92a13.07,13.07,0,0,0,2.31-1.92c3.25-3.29,8.18-11,2.48-24.3a9.64,9.64,0,0,0-9.69-5.84c-3.43.32-7.27,2-9.59,7.09h0a26.55,26.55,0,0,0-2.06,9.44v10.15s-7.92,2.39-7.92-7.76l1.19-22.09-5.12,1.56c-7.4,1.09-6.74-4.13-6.74-4.13v-10c-4.35,5-17.39,10.78-17.39,10.78s-7,3.94-10.44-3.35a12.46,12.46,0,0,1-.14-9.91l2.81-7h-7.68a11,11,0,0,1-10.6-7.46c-1.07-3.36-.49-7.56,4.77-12a24.89,24.89,0,0,1,12.4-5.41c4.79-.7,11.18-1.22,12.35.71-.79-2-5.24-15,12.81-21.65a18.37,18.37,0,0,1,15.67,1.24c3.89,2.29,7.8,6.09,8.65,12.3,0,0,13.73-22.09,29.25-12.54,0,0,14.33,7.17,5.39,27.46.48-.25,12.28-6.31,15.9.51,0,0,4.82,6.53-12.93,18.6,0,0,9.78-1.85,16.2,2.2a6.65,6.65,0,0,1,2.25,8.89C411.26,284.82,406.47,290.75,396.21,296.06Z"/><path class="cls-21" d="M353.33,323.39a9.15,9.15,0,0,1-7-2.15c-5.66-3.26-4.57-25.93-4.57-25.93h-4.57a6.48,6.48,0,0,1-1.69-.35.89.89,0,0,0,0-1.14,20.85,20.85,0,0,0-3.64-3.24c-.94-3.8.39-8.5.39-8.5-2.81,2.06-5.23,3.67-7.27,4.9a3.48,3.48,0,0,0-.55,0,.71.71,0,0,0-.75.74s0,.05,0,.08a31.46,31.46,0,0,1-7.14,3.35l.24-2.82s13-5.78,17.39-10.78v10s-.66,5.22,6.74,4.13l5.12-1.56-1.19,22.09c0,10.15,7.92,7.76,7.92,7.76Z"/><path class="cls-22" d="M331.87,290.58c-.67-.48-1.43-1-2.28-1.47A10.84,10.84,0,0,0,325,287c2-1.23,4.46-2.84,7.27-4.9C332.26,282.08,330.93,286.78,331.87,290.58Z"/><path class="cls-11" d="M335.54,295a.83.83,0,0,1-.43.29c-2.16.6-7.6-3.69-7.6-3.69-2.92-1.91-3.7-3.1-3.81-3.8,0,0,0-.05,0-.08a.71.71,0,0,1,.75-.74,3.48,3.48,0,0,1,.55,0,10.84,10.84,0,0,1,4.6,2.13c.85.49,1.61,1,2.28,1.47A5.68,5.68,0,0,0,335.54,295Z"/><path class="cls-23" d="M335.54,295a5.68,5.68,0,0,1-3.67-4.38,20.85,20.85,0,0,1,3.64,3.24A.89.89,0,0,1,335.54,295Z"/><path class="cls-22" d="M391.42,327.11s-23.08,3.27-26.34.88l4.26-2.68a13.07,13.07,0,0,0,2.31-1.92c3.75-9.16-.26-22.16-.26-22.16-4.26-8.75-16.06-1.2-16.54-.89h0a26.55,26.55,0,0,0-2.06,9.44v10.15l.55,3.45a9.15,9.15,0,0,1-7-2.15c-5.66-3.26-4.57-25.93-4.57-25.93h-4.57a6.48,6.48,0,0,1-1.69-.35.83.83,0,0,1-.43.29c-2.16.6-7.6-3.69-7.6-3.69-2.92-1.91-3.7-3.1-3.81-3.8a31.46,31.46,0,0,1-7.14,3.35L315,309.19c-10.15-1.19-10.15,4.18-10.15,4.18-1.19,9.56,11.35,8.93,11.35,8.93l1.23,11.34,7.38-7.85a10.69,10.69,0,0,1,6-3.25s8.94-2,13.69,8.55a7.36,7.36,0,0,1-1.76,8.6c-1.8,1.53-4.77,2.74-9.66,2.66l-14.51.88,3.05,7.08c19.38-2.44,49.63-5.87,69.34-6.22A133.32,133.32,0,0,0,391.42,327.11ZM326,314c-3.31-.5-5.86-1.72-5.71-2.72.11-.75,1.72-1.17,3.91-1.12a38,38,0,0,1,0-8.75c.12-4.95,1-6.66,1.77-7.22a1,1,0,0,1,1.4.33c1.76,2.9,1.18,7.54,1.18,7.54a33.28,33.28,0,0,1-.76,8.52c2.69.59,4.61,1.63,4.48,2.5S329.3,314.53,326,314Zm34.29-7.16c2.18-7.83,6.75-4.57,6.75-4.57a7.79,7.79,0,0,1,2.76,4.35v0c.87,3.86-1.46,7.56-1.46,7.56-1.52-2-7.17,0-7.17,0C357.25,315.08,360.29,306.88,360.29,306.88Z"/><path class="cls-21" d="M332.25,313.12c-.15,1-2.95,1.41-6.25.92s-5.86-1.72-5.71-2.72c.11-.75,1.72-1.17,3.91-1.12a5.06,5.06,0,0,0,1.15,2.72,1.21,1.21,0,0,0,1.95-.56c.14-.43.3-1,.47-1.74C330.46,311.21,332.38,312.25,332.25,313.12Z"/><path class="cls-11" d="M328.53,302.1a33.28,33.28,0,0,1-.76,8.52c-.17.73-.33,1.31-.47,1.74a1.21,1.21,0,0,1-1.95.56,5.06,5.06,0,0,1-1.15-2.72,38,38,0,0,1,0-8.75c.12-4.95,1-6.66,1.77-7.22a1,1,0,0,1,1.4.33C329.11,297.46,328.53,302.1,328.53,302.1Z"/><path class="cls-24" d="M371.65,323.39c3.75-9.16-.26-22.16-.26-22.16-4.26-8.75-16.06-1.2-16.54-.89,2.32-5.11,6.16-6.77,9.59-7.09a9.64,9.64,0,0,1,9.69,5.84C379.83,312.4,374.9,320.1,371.65,323.39Z"/><path class="cls-21" d="M391.42,327.11s-23.08,3.27-26.34.88l4.26-2.68c3.77,1.41,16.45-.88,21.64-1.92A28.19,28.19,0,0,1,391.42,327.11Z"/><path class="cls-25" d="M368.34,314.24c-1.52-2-7.17,0-7.17,0-3.92.84-.88-7.36-.88-7.36,2.18-7.83,6.75-4.57,6.75-4.57a7.79,7.79,0,0,1,2.76,4.35v0C370.67,310.54,368.34,314.24,368.34,314.24Z"/><path class="cls-26" d="M360.51,315.37c-3,0-2.17-5.18-2.17-5.18.43-10,6.74-10.05,6.74-10.05,5.2,2,4.77,6.18,4.72,6.52"/><path class="cls-26" d="M367.26,314.3s3.33,2.37-3.23,8a7.23,7.23,0,0,1-4.86,1.06"/><path class="cls-18" d="M455.46,401.26a228.23,228.23,0,0,0-6.69-22C444,362.56,407,359.94,407,359.94s-39.41-.59-43.59,6.57c0,0,.3,17.57,5,27.47a10,10,0,0,0,9.48,5.69c11-.49,38.23-1.36,41,1.88,0,0,4.28-2,6.08,26.62,20,1.61,33.78-5.93,33.78-5.93C458.64,416.05,457.22,408.39,455.46,401.26Zm-62.67-24.35c-.1,1.8-.05,3.61,0,5.41.13,7-5.4,6.57-5.4,6.57-5.9,0-4.87-13.08-4.87-13.08-1.54-14.37,4.87-13.09,4.87-13.09C392.91,361.77,393.07,371.73,392.79,376.91Zm11,13c-6.67-.25-5.13-15.64-5.13-15.64-1-10.52,5.13-10.26,5.13-10.26,4.76-.74,5.35,7,5.3,11.54,0,1.93.06,3.87.19,5.8C409.92,390.78,403.8,389.91,403.8,389.91Z"/><path class="cls-18" d="M459.16,427.88s-11.5,16.81-37.11,5.4c-.71-.29-1.24-1.89-1.64-4-.1-.53-.19-1.09-.27-1.67,1.61.24,3.18.42,4.72.54,20,1.61,33.78-5.93,33.78-5.93,0,1,0,2-.12,3A27.55,27.55,0,0,0,459.16,427.88Z"/><path class="cls-20" d="M465.76,466.13s-2.5,3.64-14.85,5.83h0c-7,1.24-17.08,2-31.64,1.41,0,0-5,.37-7.43-1.76h0c-1.21-1.07-1.75-2.78-.63-5.48,0,0,5.41-9.53,3.12-13.4,0,0-10.08-5.25-5.07-11.94a40.92,40.92,0,0,1,6.08-5.51c.36-.25.72-.5,1.09-.72,14.52,17.51,44.11-1.51,44.75-1.92h0a7.91,7.91,0,0,0,1.1,1.41,6.53,6.53,0,0,1,1.75,3.5C465.16,443.86,467.75,459.93,465.76,466.13Z"/><path class="cls-27" d="M461.16,432.64c-.64.41-30.23,19.43-44.75,1.92,2-1.25,4.07-2,5.64-1.28,25.61,11.41,37.11-5.4,37.11-5.4A19.19,19.19,0,0,0,461.16,432.64Z"/><path class="cls-28" d="M419,361.67s-2.43,6.76,8.8,11.22a4.48,4.48,0,0,0,1.08.26c1.1.17,4.21,1.55,7.84,11.13,0,0,3.41,20,9,20,0,0,4.05-1.37,9.76-3"/><path class="cls-18" d="M402.24,426.19s-3.47-7.54,4.72-9.43l7.52-1.36c-1.51-5.79-32.21-5.81-32.21-5.81-8.61,1.06-14.33-.16-17.49-1.28a15.34,15.34,0,0,1-2.28-1l-.32-.17a4.25,4.25,0,0,1-.42-.25c-13.34-13.83-2.72-34.18-2.72-34.18l-8.86.54-41.84,2.55c.26,2.29.57,5.09.94,8.24,1.65,14.28,4.2,35.91,6.23,51.07.1.74.2,1.46.29,2.16.71,5.13,1.34,9.36,1.83,12.09h0c.37,2.06.67,3.26.86,3.34,1.63.69-35.51,7.79-39.88,18.16,0,0-4.41,17.15-5.68,29.3-.63,6-.49,10.77,1.31,11.67,0,0,.46.28,1.34.74h0A83.07,83.07,0,0,0,314,521.76c.83,0,1.67,0,2.52-.07a25.3,25.3,0,0,0,3.71-10.41,24.87,24.87,0,0,0,0-6.52s-5.89-9.83,37.94-12c0,0,.57.06,1.61.11,4.77.18,19.41,0,32.71-8.39a47.18,47.18,0,0,0,13.55-12.85,14.19,14.19,0,0,0,1.46-2.68l6.76-16.2s-10.08-5.25-5.07-11.94a40.92,40.92,0,0,1,6.08-5.51v-7.77S405.4,430.67,402.24,426.19ZM320,421c-1.49.13-2.91-2.19-3.17-5.18s.75-5.52,2.24-5.65,2.91,2.19,3.17,5.18S321.53,420.85,320,421Zm1.21-18c-1.89.17-3.74-3.29-4.12-7.72s.84-8.16,2.73-8.32,3.74,3.3,4.12,7.73S323.13,402.86,321.24,403Z"/><path class="cls-29" d="M353.54,367.21s-2,1.25-3.36,6.06l-41.84,2.55-.74-6.58a9.45,9.45,0,0,0,5,.86Z"/><path class="cls-18" d="M420.69,485.15a40.88,40.88,0,0,1-22.38,1.06,45.22,45.22,0,0,0,11-14.6h2.5c2.4,2.13,7.43,1.76,7.43,1.76S420,478.39,420.69,485.15Z"/><path class="cls-20" d="M467.55,489.41c.19,2.59.38,5.63.55,9.2v49h0c-1.39,3.35-4.67,5.57-12.41-2.63,0,0-17.64-16.53-10.53-33.68l-1.69-1.08s-3.09,6.64-6.76,1.08h-3.93s2.82-19.61-1.41-37.72A119.71,119.71,0,0,0,450.9,472h0c.43,0,14,.87,14.27,2.69,0,0,.26-.06.65,1.28"/><path class="cls-18" d="M432.79,511.28s-.79,5.24-3.42,5.24c0,0-29.65,9.29-46.77,1.51a17.73,17.73,0,0,1-6.29-5L366,500.36c15.21-1.82,25.57-8,32.35-14.15a40.88,40.88,0,0,0,22.38-1.06c-.73-6.76-1.43-11.78-1.43-11.78,4.44.18,8.47.24,12.12.19C435.61,491.67,432.79,511.28,432.79,511.28Z"/><path class="cls-30" d="M467.55,489.41l-1.73-13.48h0c.26-.08,5.41-1.43,5.67,3.19l1.31,8.43S474.13,490.75,467.55,489.41Z"/><path class="cls-30" d="M468.11,547.59h0v-49s4.14-.79,4.82,3.95v39S474.18,550,468.11,547.59Z"/><path class="cls-20" d="M275.58,512.61l-.79,4.7c-5,0-1.05,6-1.05,6,1.58,3.61-1.15,2.18-1.15,2.18-15.89-11.85-34.67,0-34.67,0-14.22,8.43-6,11.59-6,11.59,6,4.21,49.77,14.74,49.77,14.74,2.34.72,4.44,1.3,6.32,1.77,6.15,1.52,10,1.79,12.39,1.56,3.56-.34,3.93-1.75,3.93-1.75,5.53-9,9.75-31.62,9.75-31.62Z"/><path class="cls-30" d="M300.35,555.13s1.56,4.84-3.7,4.31L288,558.39s-3.69-.41,0-4.82Z"/><path class="cls-30" d="M278.23,551s0,4.11-4.23,2.6c0,0-26.33-5.45-40.55-11,0,0-4.74-1.58-1.58-5.53Z"/><path class="cls-28" d="M419.26,473.37c.46,11.43,1.38,39,2.51,45.15"/><path class="cls-28" d="M392.54,465.17s0,10.79-9,13.69c0,0-3.16,2.35-38.71-3.17,0,0-26.6-5-34,10.17,0,0-6.85,13.8-6.06,23.28"/><path class="cls-28" d="M272.94,500.19s23,9.54,47.33,11.09"/><path class="cls-20" d="M315.51,435.13c-6.42-.29-7.54-3.93-7.54-3.93-2.1-4.69-3.7-19.09-4.63-29.52-.58-6.57-.9-11.56-.9-11.56,0-3.16,6.84-6.06,6.84-6.06C310.93,398.34,313.48,420,315.51,435.13Z"/><path class="cls-31" d="M364.06,397.49c0,.07,0,.14,0,.21"/><path class="cls-29" d="M364.78,408.31a13.85,13.85,0,0,1-3-1.4c-13.34-13.83-2.72-34.18-2.72-34.18l-8.86.54c1.41-4.81,3.36-6.06,3.36-6.06l9.83-.7s-8.8,16.71.68,31.19h0A95.74,95.74,0,0,0,364.78,408.31Z"/><path class="cls-29" d="M414.48,415.4c-1.51-5.79-32.21-5.81-32.21-5.81-8.61,1.06-14.33-.16-17.49-1.28a95.74,95.74,0,0,1-.73-10.6c.47.72,1,1.42,1.55,2.12a7.16,7.16,0,0,0,5.6,2.66c10.22,0,41.54.22,43.11,2.64Z"/><path class="cls-20" d="M321.24,403c-1.89.17-3.74-3.29-4.12-7.72s.84-8.16,2.73-8.32,3.74,3.3,4.12,7.73S323.13,402.86,321.24,403Z"/><path class="cls-20" d="M320,421c-1.49.13-2.91-2.19-3.17-5.18s.75-5.52,2.24-5.65,2.91,2.19,3.17,5.18S321.53,420.85,320,421Z"/><path class="cls-20" d="M415.32,429.3v-1.79s-9.92,3.16-13.08-1.32c0,0-3.47-7.54,4.72-9.43l7.52-1.36-.17-10.27s5.12.09,4.95,11.63c0,0,.18,6.08.88,10.87.08.58.17,1.14.27,1.67Z"/><path class="cls-32" d="M424.86,428.17c-1.54-.12-3.11-.3-4.72-.54-.7-4.79-.88-10.87-.88-10.87.17-11.54-4.95-11.63-4.95-11.63-1.57-2.42-32.89-2.64-43.11-2.64a7.16,7.16,0,0,1-5.6-2.66c-.56-.7-1.08-1.4-1.55-2.12h0c-9.48-14.48-.68-31.19-.68-31.19s.3,17.57,5,27.47a10,10,0,0,0,9.48,5.69c11-.49,38.23-1.36,41,1.88C418.78,401.55,423.06,399.58,424.86,428.17Z"/><path class="cls-18" d="M315.8,437.29c-11,5.57-23.33,3.41-23.33,3.41-15.35-1.14-31.51-19-34.79-22.78a12.86,12.86,0,0,0-1.42-1.34A16.79,16.79,0,0,1,254.6,415C258.52,394.4,282,387.54,282,387.54a40.47,40.47,0,0,1,6.34,9.56c9.75,13.08,15,4.58,15,4.58.93,10.43,2.53,24.83,4.63,29.52,0,0,1.12,3.64,7.54,3.93C315.61,435.87,315.71,436.59,315.8,437.29Z"/><path class="cls-33" d="M282,387.54S258.52,394.4,254.6,415c-5.19-5.8-4.19-13.53-4.19-13.53,11-17.45,24.88-18.53,24.88-18.53A15.67,15.67,0,0,1,282,387.54Z"/><path class="cls-20" d="M282.21,371.19c.26,4.62-2.82,6.16-2.82,6.16-6.41,1.79-4.1,5.58-4.1,5.58s-13.85,1.08-24.88,18.53l-4.62-3.85c-1.54,1.28-5.13.26-5.13.26l-3.08-1.54c-18.47-10.52-14.36-23.43-14.36-23.43,11.8-27,33.34-31.47,33.34-31.47,14.88-.77,21.66,18.51,21.66,18.51C290.4,362.55,282.21,371.19,282.21,371.19Z"/><path class="cls-20" d="M403.8,389.91c-6.67-.25-5.13-15.64-5.13-15.64-1-10.52,5.13-10.26,5.13-10.26,4.76-.74,5.35,7,5.3,11.54,0,1.93.06,3.87.19,5.8C409.92,390.78,403.8,389.91,403.8,389.91Z"/><path class="cls-20" d="M392.79,376.91c-.1,1.8-.05,3.61,0,5.41.13,7-5.4,6.57-5.4,6.57-5.9,0-4.87-13.08-4.87-13.08-1.54-14.37,4.87-13.09,4.87-13.09C392.91,361.77,393.07,371.73,392.79,376.91Z"/><path class="cls-34" d="M407.85,463.5s-35.34-.22-41.24-3.05"/><path class="cls-34" d="M318.83,449.71c.6.16,21.93,6.16,41,8.69"/><line class="cls-35" x1="408.64" y1="209.93" x2="473.03" y2="209.93"/><line class="cls-35" x1="433.63" y1="242" x2="511.78" y2="242"/><line class="cls-35" x1="411.7" y1="292.12" x2="461.17" y2="292.12"/><line class="cls-35" x1="432.63" y1="329.86" x2="490.44" y2="329.86"/><line class="cls-35" x1="409.34" y1="359.95" x2="449.06" y2="359.95"/><line class="cls-35" x1="459.17" y1="418.22" x2="519.63" y2="418.22"/><line class="cls-35" x1="477.58" y1="502.19" x2="507.13" y2="502.19"/><line class="cls-35" x1="309.54" y1="545.48" x2="339.09" y2="545.48"/><path class="cls-28" d="M353.59,366.51s-7.53,15.27-3.41,47.82c0,0,.91,16.41,7.15,22.94a3.54,3.54,0,0,0,5.18,0c1.69-1.84,3.41-5.3,2.68-11.56-.06-.53-.15-1.06-.26-1.58-.76-3.78-6.8-24.71-1.94-28.17"/><path class="cls-29" d="M409.33,471.61a45.22,45.22,0,0,1-11,14.6c-6.78,6.16-17.14,12.33-32.35,14.15l-6.13-7.51c4.77.18,19.41,0,32.71-8.39a47.18,47.18,0,0,0,13.55-12.85Z"/><path class="cls-28" d="M419.73,485.44s-22,7-27.19-1"/><path class="cls-28" d="M458.64,422.24s-20.88,8.54-38.78,5.46"/></g></g></svg>