<?xml version="1.0" encoding="utf-8"?>
<!-- Generator: Adobe Illustrator 16.0.0, SVG Export Plug-In . SVG Version: 6.00 Build 0)  -->
<!DOCTYPE svg PUBLIC "-//W3C//DTD SVG 1.1//EN" "http://www.w3.org/Graphics/SVG/1.1/DTD/svg11.dtd">
<svg version="1.1" xmlns="http://www.w3.org/2000/svg" xmlns:xlink="http://www.w3.org/1999/xlink" x="0px" y="0px" width="15.5px"
	 height="18.75px" viewBox="0 2.375 15.5 18.75" enable-background="new 0 2.375 15.5 18.75" xml:space="preserve">
<g id="trash" display="none">
	<g id="Bounding_Boxes" display="inline">
		<path fill="none" d="M0,0h24v24H0V0z"/>
	</g>
	<path display="inline" fill="#343434" d="M3,18c0,1.1,0.9,2,2,2h6c1.1,0,2-0.9,2-2V8H3V18z M13,5h-2l-0.71-0.71
		C10.11,4.11,9.85,4,9.59,4H6.41c-0.26,0-0.52,0.11-0.7,0.29L5,5H3C2.45,5,2,5.45,2,6l0,0c0,0.55,0.45,1,1,1h10c0.55,0,1-0.45,1-1
		l0,0C14,5.45,13.55,5,13,5z"/>
</g>
<g id="edit">
	<g transform="translate(0,-952.36218)">
		<path d="M11.565,957.903l-9.224,9.225l3.101,3.102l9.225-9.225L11.565,957.903z M1.982,967.807l-0.815,3.597l3.597-0.814
			L1.982,967.807z"/>
	</g>
</g>
</svg>
