<svg xmlns="http://www.w3.org/2000/svg" viewBox="0 0 1652.63 1029"><defs><style>.cls-1{fill:#eefbff;}.cls-13,.cls-16,.cls-17,.cls-18,.cls-19,.cls-2,.cls-21,.cls-3,.cls-5,.cls-8{fill:none;}.cls-2,.cls-5{stroke:#45b2ef;}.cls-13,.cls-16,.cls-17,.cls-18,.cls-2,.cls-21,.cls-3,.cls-5,.cls-8{stroke-miterlimit:10;}.cls-3{stroke:#88cdf3;}.cls-21,.cls-3,.cls-5,.cls-8{stroke-width:2px;}.cls-4{fill:#a4e2f7;}.cls-6{fill:#ff809f;}.cls-7{fill:#45b2ef;}.cls-16,.cls-17,.cls-18,.cls-8{stroke:#40327a;}.cls-9{fill:#40327a;}.cls-10{fill:#ffe4e0;}.cls-11{fill:#ffabbf;}.cls-12{fill:#fff;}.cls-13{stroke:#fff;}.cls-13,.cls-16,.cls-17{stroke-width:1.5px;}.cls-14{fill:#37a1f6;}.cls-15{fill:#ffc359;}.cls-16,.cls-18{stroke-linecap:round;}.cls-20{fill:#e5659b;}.cls-21{stroke:#a897f2;}</style></defs><title>loginbg</title><g id="Calque_2" data-name="Calque 2"><g id="Calque_1-2" data-name="Calque 1"><path class="cls-1" d="M1458.38,972.78H101.27L57.73,929.47c-156.19-145.68,54.05-273.33,54.05-273.33,97.62-67.58-7.5-131.69-7.5-131.69C45.89,481,38,389,39.58,329.6c1.31-46.83,21-91.57,55.82-122.92,90.16-81.28,180.08,13.94,180.08,13.94l39,15v81.11l146,83.09,51.85-86.43C642.06,68.14,823.58,2.23,823.58,2.23c163.15-24.86,96.16,166.39,96.16,166.39L897.05,332.84l128.58,17.28c60.51,6.5,132.9-107,132.9-107,105.89-154.5,177.19-124.25,177.19-124.25,89.68,32.41,8.64,152.34,8.64,152.34L1224.43,649.42s93.24,34.05,226.81-82.39,163.59,32.14,163.59,32.14C1682.7,847.77,1458.38,972.78,1458.38,972.78Z"/><path class="cls-1" d="M501,187.36c-.66.46-1.31.92-1.91,1.42a89.59,89.59,0,0,1-13.32,8.95,40.43,40.43,0,0,1-50.44-9.52c-17.15-20.38-34.45-56-2.59-99.7a91.77,91.77,0,0,1,36.12-29.27c28.69-13.1,79.85-29.57,79.3,19.81C548.13,79.05,552,152,501,187.36Z"/><line class="cls-2" x1="217.96" y1="1000.21" x2="340.05" y2="1000.21"/><line class="cls-2" x1="454.39" y1="1000.21" x2="864.05" y2="1000.21"/><line class="cls-2" x1="664.22" y1="1028.5" x2="1000.72" y2="1028.5"/><line class="cls-2" x1="302.17" y1="1028.5" x2="554.45" y2="1028.5"/><line class="cls-2" x1="929.7" y1="1000.21" x2="1175.37" y2="1000.21"/><line class="cls-3" x1="19.69" y1="973.83" x2="1652.63" y2="973.83"/><polygon class="cls-4" points="836.16 449.89 835.23 450.94 791.46 450.94 792.03 449.89 836.16 449.89"/><polygon class="cls-4" points="848.69 449.89 952.93 449.89 952.67 450.94 848.69 450.94 848.69 449.89"/><polygon class="cls-4" points="1009.17 450.94 969.51 450.94 969.09 449.89 1008.9 449.89 1009.17 450.94"/><line class="cls-5" x1="1551.75" y1="676.59" x2="1539.56" y2="676.59"/><line class="cls-5" x1="1489.74" y1="676.59" x2="1477.52" y2="676.59"/><line class="cls-5" x1="1514.65" y1="714.89" x2="1514.65" y2="701.5"/><line class="cls-5" x1="1514.65" y1="651.68" x2="1514.65" y2="640.66"/><line class="cls-5" x1="1502.19" y1="698.17" x2="1495.46" y2="709.83"/><line class="cls-5" x1="1532.57" y1="645.54" x2="1527.08" y2="655.02"/><line class="cls-5" x1="1493.07" y1="689.03" x2="1482.47" y2="695.16"/><line class="cls-5" x1="1546.75" y1="658.03" x2="1536.2" y2="664.12"/><line class="cls-5" x1="1533.47" y1="710.35" x2="1526.59" y2="698.44"/><line class="cls-5" x1="1501.68" y1="655.33" x2="1496.34" y2="646.07"/><line class="cls-5" x1="1546.75" y1="696.24" x2="1535.7" y2="689.87"/><line class="cls-5" x1="1492.62" y1="664.98" x2="1482.47" y2="659.13"/><line class="cls-5" x1="1109.65" y1="97.18" x2="1097.45" y2="97.18"/><line class="cls-5" x1="1047.63" y1="97.18" x2="1035.42" y2="97.18"/><line class="cls-5" x1="1072.54" y1="135.48" x2="1072.54" y2="122.09"/><line class="cls-5" x1="1072.54" y1="72.27" x2="1072.54" y2="61.25"/><line class="cls-5" x1="1060.09" y1="118.75" x2="1053.36" y2="130.42"/><line class="cls-5" x1="1090.46" y1="66.13" x2="1084.98" y2="75.61"/><line class="cls-5" x1="1050.97" y1="109.62" x2="1040.37" y2="115.75"/><line class="cls-5" x1="1104.64" y1="78.62" x2="1094.1" y2="84.71"/><line class="cls-5" x1="1091.36" y1="130.93" x2="1084.48" y2="119.03"/><line class="cls-5" x1="1059.57" y1="75.92" x2="1054.24" y2="66.66"/><line class="cls-5" x1="1104.64" y1="116.83" x2="1093.6" y2="110.46"/><line class="cls-5" x1="1050.51" y1="85.57" x2="1040.37" y2="79.72"/><line class="cls-5" x1="599.26" y1="228.9" x2="587.06" y2="228.9"/><line class="cls-5" x1="537.24" y1="228.9" x2="525.02" y2="228.9"/><line class="cls-5" x1="562.15" y1="267.2" x2="562.15" y2="253.81"/><line class="cls-5" x1="562.15" y1="203.99" x2="562.15" y2="192.96"/><line class="cls-5" x1="549.69" y1="250.47" x2="542.96" y2="262.14"/><line class="cls-5" x1="580.07" y1="197.84" x2="574.59" y2="207.33"/><line class="cls-5" x1="540.58" y1="241.33" x2="529.97" y2="247.46"/><line class="cls-5" x1="594.25" y1="210.34" x2="583.7" y2="216.42"/><line class="cls-5" x1="580.97" y1="262.65" x2="574.09" y2="250.74"/><line class="cls-5" x1="549.18" y1="207.64" x2="543.84" y2="198.38"/><line class="cls-5" x1="594.25" y1="248.54" x2="583.21" y2="242.18"/><line class="cls-5" x1="540.12" y1="217.29" x2="529.97" y2="211.44"/><path class="cls-6" d="M1182.76,393v18.25c0,16.41-9.9,30.75-24.69,38.58h-51.83c-14.78-7.83-24.68-22.17-24.68-38.58V393Z"/><rect class="cls-6" x="1081.56" y="373.38" width="101.2" height="14.25"/><path class="cls-7" d="M1152.42,310.27s3.12-56,32.94-49A22.29,22.29,0,0,1,1201.87,277C1205,288.75,1201.13,306.41,1152.42,310.27Z"/><path class="cls-7" d="M1130.79,280.25s-38.1-41.23-12.33-57.79a22.29,22.29,0,0,1,22.81-.89C1151.9,227.49,1161.9,242.57,1130.79,280.25Z"/><path class="cls-7" d="M1103.51,328.85s-44.44-2-39.15-25.67A17.66,17.66,0,0,1,1076.71,290C1086,287.38,1100,290.3,1103.51,328.85Z"/><line class="cls-8" x1="1130.81" y1="251.91" x2="1130.81" y2="373.38"/><line class="cls-8" x1="1177.34" y1="286.87" x2="1130.81" y2="332.45"/><line class="cls-8" x1="1087.76" y1="312.64" x2="1130.81" y2="353.61"/><polygon class="cls-9" points="836.16 449.89 848.69 435.99 848.69 449.89 836.16 449.89"/><polygon class="cls-9" points="969.09 449.89 952.93 449.89 959.04 425.5 969.09 449.89"/><path class="cls-9" d="M977.36,342.46l-.05,1.56a24.52,24.52,0,0,0-14.16-6.42H922.76s-21.7,52.75-43-.37H863.66c-11.61,0-18,13.83-18,13.83l-23.19,42.71-5.24-16.51c-17.21-40.78,9.35-63.6,9.35-63.6,8.22-7.12,7.45-14.58,7.45-14.58V282.62a70.83,70.83,0,1,1,120.44,1.93c-1.49,23.09,11.21,32.56,11.21,32.56C976.5,327.66,977.36,342.46,977.36,342.46Z"/><path class="cls-10" d="M1008.9,449.89H969.09L959,425.5l-6.11,24.39H848.69V436l-12.53,13.9H792.5V449l30-55.24,23.19-42.71s6.35-13.83,18-13.83h16.06c21.34,53.12,43,.37,43,.37h40.39A24.52,24.52,0,0,1,977.31,344a29,29,0,0,1,8.29,14.53Z"/><polygon class="cls-10" points="836.16 449.89 835.23 450.94 791.46 450.94 792.03 449.89 792.5 449.01 792.5 449.89 836.16 449.89"/><polygon class="cls-10" points="952.93 449.89 952.67 450.94 848.69 450.94 848.69 449.89 952.93 449.89"/><polygon class="cls-10" points="1009.17 450.94 969.51 450.94 969.09 449.89 1008.9 449.89 1009.17 450.94"/><path class="cls-11" d="M923.88,273.25l-1.12,64.35s-21.7,52.75-43-.37l.39-26.56-10.47.37s-21.34-7.49-23.94-25.44l3-58s25.81,1.12,38.52,15c0,0,9.87,13.12,43.77,13.85C931,256.43,938.46,271.77,923.88,273.25Z"/><path class="cls-12" d="M863.65,284.85h20.57S873.75,303.55,863.65,284.85Z"/><polygon class="cls-7" points="1286.21 628.63 1286.21 973.83 358.31 973.83 358.31 774.66 1286.21 628.63"/><line class="cls-13" x1="690.04" y1="761.44" x2="1185.95" y2="683.4"/><line class="cls-13" x1="822.25" y1="775.6" x2="1154.69" y2="723.28"/><line class="cls-13" x1="781.27" y1="782.05" x2="802.7" y2="778.67"/><polygon class="cls-4" points="1286.21 449.89 1286.21 628.63 358.31 774.66 358.31 449.89 792.03 449.89 791.46 450.94 835.23 450.94 836.16 449.89 848.69 449.89 848.69 450.94 952.67 450.94 952.93 449.89 969.09 449.89 969.51 450.94 1009.17 450.94 1008.9 449.89 1286.21 449.89"/><rect class="cls-7" x="585.04" y="387.35" width="207.46" height="62.55"/><path class="cls-14" d="M1249.76,331.73a30,30,0,0,1,1-3.81c5.06-15.69,38.69-110.47,96.84-57.32,0,0,17.55,7.93,19.69,105.12a4.54,4.54,0,0,1-.06.9c-.62,4.36-4.3,41.48,44.45,77.6a5.09,5.09,0,0,0,.95.57c6.89,3.22,83.48,40.94,37,108.08a4.59,4.59,0,0,1-.33.44c-3,3.54-44.12,53-40.48,85.29,0,0,0,23.46,20.11,52.38,0,0,24.57,33.72,14.77,67.55a5.69,5.69,0,0,1-.25.69c-2.2,5.17-29.75,65.24-117.85,62.51h-.31c-2.79.12-49.12,1.19-100.87-51.92a36.56,36.56,0,0,1-3.54-4.23c-9.73-13.6-50.84-78.35,36.73-93.82a5.49,5.49,0,0,0,.7-.17c4.61-1.53,51.51-18.73,2.35-69.25a4.51,4.51,0,0,0-.39-.37c-3.59-3.07-53.7-47.13-52.19-115.71,0-.14,0-.26,0-.4.3-3.45,5-53.37,29.38-114.37a32.78,32.78,0,0,0,1.31-4C1240.68,370.12,1247.38,344.32,1249.76,331.73Z"/><path class="cls-15" d="M1400.3,900.27v23.14c0,20.38-12.93,38.25-32.37,48.3a5.48,5.48,0,0,1-2.45.58h-67.82a5.44,5.44,0,0,1-2.44-.58c-19.45-10.05-32.38-27.92-32.38-48.3V900.27Z"/><rect class="cls-15" x="1262.84" y="884.57" width="137.46" height="10.59"/><line class="cls-16" x1="1331.57" y1="884.57" x2="1331.57" y2="483.39"/><path class="cls-16" d="M1331.57,599.23s16.43-42,49.42-56"/><path class="cls-16" d="M1298.37,722.93s33.2,24.74,33.2,38.76"/><path class="cls-17" d="M1202.68,727c-.1-19.51,11.94-39,55.21-46.59,0,0,54.48-16.34,2.52-69.56,0,0-54.06-44.84-52.38-116.08,0,0,4.11-51.49,29.5-114.86"/><path class="cls-17" d="M1250.63,326.92c4.7-14.7,38.39-111.15,96.94-57.63,0,0,17.61,8,19.7,105.6,0,0-5,26.38,21.4,57"/><path class="cls-17" d="M1443.54,767.56s-26,65.79-118.18,62.86c0,0-47.77,2.88-101.27-52.19"/><path class="cls-17" d="M1423,690.41c1.75,3,3.71,6.1,5.9,9.26"/><path class="cls-17" d="M1412.11,453.26s86.33,38.13,37.3,108.54c0,0-44.42,52-40.65,85.49"/><rect class="cls-6" x="125.28" y="656.54" width="185.36" height="126.04"/><path class="cls-18" d="M189.23,656.54a28.73,28.73,0,1,1,57.46,0"/><line class="cls-8" x1="310.64" y1="698.65" x2="310.64" y2="677.49"/><polyline class="cls-8" points="161.7 782.58 310.64 782.58 310.64 728.12"/><path class="cls-9" d="M380.79,207.6l-10.26,1.28-6,.76s-2,12.21-18.31,12.21c0,0-8.14,1-8.14,13.23,0,0,6.11,17.29-13.24,24.41l-33.59-.2s-15.26-4.88-20.34-19.13V192.32s4.07-34.6,34.59-29.51c0,0,7.14-18.31,25.44-6.11,0,0-2-4.31,9.18-4.18l21.36,0s18.33,4.2,19.34,16.41C380.79,168.91,408.27,188.27,380.79,207.6Z"/><path class="cls-11" d="M358.39,276.81l-19.33-2,1,28.47H291.22V259.29l33.59.2c19.35-7.12,13.24-24.41,13.24-24.41,0-12.22,8.14-13.23,8.14-13.23,16.27,0,18.31-12.21,18.31-12.21l6-.76v50.61S372.64,274.77,358.39,276.81Z"/><line class="cls-19" x1="330.94" y1="955.65" x2="330.92" y2="955.65"/><path class="cls-11" d="M591.33,432.1a15.68,15.68,0,0,1-15.68,15.68h-33V422.34s14.26,3.6,20.88-.11a6.23,6.23,0,0,0,2.58-2.53,15.5,15.5,0,0,1,9.58-3.28A15.68,15.68,0,0,1,591.33,432.1Z"/><polygon class="cls-9" points="383.41 524.18 363.49 953.61 330.93 955.64 330.93 575.01 295.31 575.01 246.45 954.62 212.86 955.64 245.44 554.65 244.35 524.13 383.41 524.18"/><path class="cls-20" d="M256.63,975c-16.29-1-43.77.07-43.77.07v-19.4l33.59-1s20.36,11.21,19.35,11.21S272.92,976,256.63,975Z"/><path class="cls-20" d="M374.69,975H330.94V955.65l32.56-2,19.33,13.22S384.87,975,374.69,975Z"/><path class="cls-15" d="M542.61,422.34v25.44H454.07L388.93,405l-5.52,119.14-139,0-3-84.49L227.11,461l.94,131.83-25.77,5.58L177.24,463s-7.12-14.05,4.07-30.94L226.1,330.74s15.27-28.49,36.64-27.48l77.35,0h35.62a55,55,0,0,1,25.44,20.38l79.39,76.32Z"/><path class="cls-11" d="M233.64,628.53a15.68,15.68,0,1,1-31.36,0s2.62-19.93,0-30.11l25.77-5.58.09,12.69,2.9,14.35Z"/><line class="cls-8" x1="1312.09" y1="884.57" x2="1400.48" y2="884.57"/><path class="cls-8" d="M1295.22,971.29c-19.45-10-32.38-27.92-32.38-48.3"/><polyline class="cls-21" points="677.73 387.35 792.5 387.35 792.5 449.89"/><line class="cls-21" x1="657.69" y1="387.35" x2="642.5" y2="387.35"/><line class="cls-8" x1="880.57" y1="449.01" x2="1191.65" y2="449.01"/><line class="cls-8" x1="784.32" y1="449.01" x2="811.61" y2="449.01"/><line class="cls-8" x1="422.84" y1="449.01" x2="765.34" y2="449.01"/><line class="cls-8" x1="304.8" y1="973.89" x2="558.16" y2="973.89"/><line class="cls-8" x1="643.19" y1="973.89" x2="780.33" y2="973.89"/><line class="cls-8" x1="995.02" y1="973.89" x2="1053.26" y2="973.89"/><line class="cls-8" x1="1082.55" y1="973.89" x2="1172.77" y2="973.89"/><line class="cls-8" x1="1326.67" y1="973.89" x2="1412.91" y2="973.89"/><line class="cls-8" x1="1421.49" y1="973.89" x2="1438.96" y2="973.89"/><line class="cls-8" x1="803.31" y1="973.89" x2="820.03" y2="973.89"/><line class="cls-8" x1="207.68" y1="973.89" x2="277.43" y2="973.89"/></g></g></svg>